<?xml version='1.0' encoding='utf-8'?>
<svg xmlns="http://www.w3.org/2000/svg" baseProfile="tiny" version="1.2" viewBox="0 0 5e3 5e3"> <rect width="5e3" height="5e3" fill="#fff"/> <path d="m3956.4 1092.8h-129.8v-164.3h-1173.5v144.5h-149.1v952.3h-144.5v149.1h-216v136.9h-220.6v155.2h-152.1v143h-290.6v-141.5h-146v-146h-146v-296.7h-144.5v873.2h140v149.1h152.1v147.6h144.5v146h146v141.5h144.5v588.7h296.7v-150.6h-147.6v-144.5h146v-146h146v-144.5h147.6v144.5h140.5v441.2h293.1v-149.1h-141.5v-582.7h141.5v-147.6h150.6v-219.1h143v-511h149.1v141.5h141.5v-286h-289v-293.6h581.1v-146h-433.6l-1.5-160.2h722.1v-624.9zm-1014.5 202.5h-146v-146h146v146z" fill="#535454"/> </svg>